<?xml version="1.0" standalone="no"?><svg xmlns="http://www.w3.org/2000/svg" viewBox="0 0 1440 320"><path fill="#ffffff" fill-opacity="1" d="M0,288L18.5,256C36.9,224,74,160,111,144C147.7,128,185,160,222,149.3C258.5,139,295,85,332,101.3C369.2,117,406,203,443,250.7C480,299,517,309,554,272C590.8,235,628,149,665,144C701.5,139,738,213,775,250.7C812.3,288,849,288,886,288C923.1,288,960,288,997,256C1033.8,224,1071,160,1108,138.7C1144.6,117,1182,139,1218,154.7C1255.4,171,1292,181,1329,197.3C1366.2,213,1403,235,1422,245.3L1440,256L1440,320L1421.5,320C1403.1,320,1366,320,1329,320C1292.3,320,1255,320,1218,320C1181.5,320,1145,320,1108,320C1070.8,320,1034,320,997,320C960,320,923,320,886,320C849.2,320,812,320,775,320C738.5,320,702,320,665,320C627.7,320,591,320,554,320C516.9,320,480,320,443,320C406.2,320,369,320,332,320C295.4,320,258,320,222,320C184.6,320,148,320,111,320C73.8,320,37,320,18,320L0,320Z"></path></svg>